<?xml version="1.0" encoding="UTF-8"?>
<svg id="Calque_1" data-name="Calque 1" xmlns="http://www.w3.org/2000/svg" viewBox="0 0 611.36 187.07">
  <defs>
    <style>
      .cls-1 {
        fill: none;
        stroke: #fff;
        stroke-miterlimit: 10;
        stroke-width: .8px;
      }

      .cls-2 {
        fill: #f8aa10;
      }

      .cls-2, .cls-3, .cls-4, .cls-5 {
        stroke-width: 0px;
      }

      .cls-3 {
        fill: #6ac6dd;
      }

      .cls-4 {
        fill: #fff;
      }

      .cls-5 {
        fill: #e84b11;
      }
    </style>
  </defs>
  <g>
    <path class="cls-4" d="M20.2,48.31h19.84c22.32,0,37.41,15.92,37.41,37.93,0,19.22-12.92,39.58-36.79,39.58h-20.46V48.31ZM40.66,110.42c14.06,0,21.5-12.19,21.5-24.18,0-13.44-8.47-22.53-22.12-22.53h-3.31v46.71h3.93Z"/>
    <path class="cls-4" d="M87.79,48.31h15.81v77.51h-15.81V48.31Z"/>
    <path class="cls-4" d="M150.1,47.27c14.06.1,23.56,9.51,26.87,20.05l-13.13,6.72c-.41-2.89-3.82-11.57-13.64-11.57-11.47,0-19.84,9.3-19.84,24.6s8.27,25.42,19.64,25.42c4.24,0,7.54-.93,10.13-2.38v-13.85h-15.71v-13.44h31.52v43.1h-15.81v-2.79c-3.82,2.48-8.37,3.41-13.13,3.41-15.61,0-33.07-14.06-33.07-39.48,0-22.94,15.19-39.69,36.17-39.79Z"/>
    <path class="cls-4" d="M188.34,48.31h15.81v77.51h-15.81V48.31Z"/>
    <path class="cls-4" d="M215,63.6v-15.3h58.6v15.3h-21.08v62.22h-16.43v-62.22h-21.08Z"/>
    <path class="cls-4" d="M295.5,48.51v-.21h16.54v.1l25.32,77.41h-16.54l-5.06-17.36h-24.18l-5.06,17.36h-16.54l25.53-77.3ZM311.62,94.09l-7.85-26.97-7.96,26.97h15.81Z"/>
    <path class="cls-4" d="M344.07,125.82V48.31h15.71v62.32h27.9v15.19h-43.61Z"/>
    <path class="cls-4" d="M397.91,48.31h15.81v77.51h-15.81V48.31Z"/>
    <path class="cls-4" d="M424.06,108.14l10.54-9.51c.21,2.48,5.79,12.92,16.54,12.92,6.41,0,10.44-3.93,10.44-8.47,0-3.31-1.86-6.2-13.12-10.65-9.51-3.72-23.56-7.23-23.56-23.46,0-12.4,10.65-21.39,25.84-21.39s22.12,8.68,24.91,17.16l-13.23,7.23c-2.69-9.2-11.68-9.3-17.57-9.3-.21,0,11.26,0,5.48,0s-9.09,2.79-9.09,6.3c0,3.2,1.03,5.58,12.09,9.3,9.61,3.2,24.7,7.85,24.7,24.6,0,13.02-10.64,23.67-25.32,23.67-1.24,0-3.62,0-4.86-.1-10.96-.93-20.57-7.65-23.77-18.29Z"/>
    <path class="cls-4" d="M488.33,48.31h15.81v77.51h-15.81V48.31Z"/>
    <path class="cls-4" d="M517.06,48.31h20.36l16.02,50.12h1.34l16.12-50.12h20.26v77.51h-16.43v-42.48l-14.57,42.48h-12.09l-14.47-42.48v42.48h-16.54V48.31Z"/>
  </g>
  <g>
    <path class="cls-2" d="M62.66,151.02h17.36v5.29h-11.57v5.98h8.87v5.33h-8.87v6.62h11.57v5.33h-17.36v-28.55Z"/>
    <path class="cls-2" d="M82.5,179.57l7.04-11.04-7.04-9.94h6.24l4.34,6.09,3.65-6.09h6.24l-6.7,10.62,7.35,10.35h-6.28l-4.57-6.51-4.04,6.51h-6.24Z"/>
    <path class="cls-2" d="M106.86,158.67h5.41v3.81c.53-1.14,1.26-2.12,2.19-2.93.93-.81,2.1-1.22,3.52-1.22,1.5,0,2.79.31,3.88.93,1.09.62,1.99,1.44,2.7,2.46.71,1.02,1.24,2.17,1.6,3.46s.53,2.63.53,4-.18,2.67-.53,3.96c-.36,1.29-.89,2.44-1.62,3.45-.72,1-1.64,1.81-2.74,2.44-1.1.62-2.42.93-3.94.93-.94,0-1.76-.17-2.47-.51-.71-.34-1.32-.8-1.83-1.37-.51-.57-.94-1.2-1.29-1.88v10.89h-5.41v-28.4ZM112.31,169.14c0,.61.08,1.26.23,1.94.15.69.41,1.31.76,1.88.36.57.82,1.05,1.39,1.43.57.38,1.26.57,2.07.57s1.5-.19,2.08-.57c.57-.38,1.03-.86,1.39-1.43.36-.57.61-1.2.76-1.88.15-.69.23-1.33.23-1.94s-.08-1.26-.23-1.94c-.15-.69-.41-1.31-.76-1.88-.36-.57-.82-1.05-1.39-1.43-.57-.38-1.26-.57-2.08-.57s-1.5.19-2.07.57c-.57.38-1.03.86-1.39,1.43-.36.57-.61,1.2-.76,1.88-.15.69-.23,1.33-.23,1.94Z"/>
    <path class="cls-2" d="M129.74,169.1c0-1.57.25-3.02.74-4.34.49-1.32,1.19-2.46,2.07-3.43.89-.96,1.94-1.72,3.16-2.27,1.22-.55,2.55-.82,4-.82,1.37,0,2.59.27,3.65.8,1.07.53,1.97,1.25,2.7,2.15.74.9,1.29,1.94,1.67,3.1.38,1.17.57,2.4.57,3.69,0,.28-.01.57-.04.88,0,.25-.01.55-.04.88-.03.33-.06.67-.11,1.03h-12.75c.1.53.25,1.05.46,1.54.2.5.48.93.82,1.31.34.38.77.69,1.27.93.51.24,1.1.36,1.79.36.76,0,1.44-.13,2.04-.38.6-.25,1.11-.54,1.54-.86.43-.32.77-.62,1.03-.89.25-.28.41-.43.46-.46l2.89,3.96c-.33.38-.72.79-1.18,1.22-.46.43-1,.82-1.64,1.18-.63.36-1.37.65-2.21.89-.84.24-1.81.36-2.93.36-1.45,0-2.78-.27-4-.82-1.22-.55-2.27-1.3-3.16-2.27-.89-.96-1.58-2.11-2.07-3.43-.5-1.32-.74-2.77-.74-4.34ZM142.92,167.35c.02-.23.02-.48,0-.76-.03-.25-.07-.53-.13-.82-.06-.29-.18-.6-.36-.93-.08-.15-.19-.32-.34-.49-.15-.18-.34-.35-.57-.51-.23-.16-.49-.3-.78-.42-.29-.11-.63-.17-1.01-.17-.63,0-1.2.11-1.69.34-.49.23-.92.53-1.28.91-.36.38-.64.82-.86,1.31-.22.49-.37,1.01-.48,1.54h7.5Z"/>
    <path class="cls-2" d="M152.13,158.56h4.95v5.41h.19c.38-1.95,1.03-3.41,1.94-4.36.91-.95,2.13-1.43,3.65-1.43.41,0,.84.03,1.31.08.47.05.96.14,1.47.27l-1.75,5.37c-.15-.2-.36-.38-.63-.53-.27-.15-.58-.23-.93-.23-.58,0-1.16.15-1.73.44-.57.29-1.08.72-1.52,1.29-.44.57-.81,1.28-1.08,2.11-.28.84-.42,1.8-.42,2.89v9.71h-5.44v-21.01Z"/>
    <path class="cls-2" d="M168.5,158.63h1.83c.3,0,.57-.1.8-.29s.37-.42.42-.7l.99-4h4.26v4.99h5.03v4.57h-5.03v7.04c0,1.45.31,2.54.93,3.29.62.75,1.62,1.12,2.99,1.12h.11c.43,0,.86-.09,1.29-.27l.95,5.18c-.36.08-.8.15-1.33.23s-.94.11-1.22.11c-.63,0-1.31-.03-2.02-.1-.71-.06-1.41-.2-2.09-.4-.69-.2-1.34-.5-1.96-.89-.62-.39-1.17-.9-1.64-1.52-.47-.62-.84-1.39-1.12-2.3s-.42-2-.42-3.27v-8.22h-2.78v-4.57Z"/>
    <path class="cls-2" d="M193.05,175.61c.79,0,1.4-.16,1.83-.49.43-.33.65-.71.65-1.14,0-.36-.09-.65-.27-.9-.18-.24-.41-.46-.7-.65-.29-.19-.63-.37-1.01-.55-.38-.18-.76-.37-1.14-.57-1.4-.71-2.52-1.35-3.37-1.92-.85-.57-1.5-1.12-1.96-1.66s-.76-1.09-.91-1.68c-.15-.58-.23-1.24-.23-1.98,0-.81.19-1.57.57-2.28.38-.71.9-1.33,1.56-1.85.66-.52,1.43-.93,2.32-1.24.89-.3,1.84-.46,2.86-.46,1.29,0,2.37.22,3.22.65.85.43,1.54.9,2.07,1.41.61.61,1.09,1.31,1.45,2.09l-3.43,2.44c-.05,0-.15-.12-.3-.36s-.36-.51-.63-.8c-.27-.29-.6-.55-.99-.78-.39-.23-.86-.34-1.39-.34-.81,0-1.4.18-1.77.53-.37.36-.55.71-.55,1.07,0,.38.18.74.53,1.08s.78.66,1.28.95c.5.29,1.02.56,1.56.8.55.24,1,.45,1.35.63.63.3,1.25.64,1.85,1.01.6.37,1.13.78,1.6,1.24.47.46.84.97,1.12,1.54.28.57.42,1.22.42,1.96,0,.96-.19,1.85-.57,2.65s-.91,1.49-1.58,2.07c-.67.58-1.47,1.03-2.4,1.35-.93.32-1.95.48-3.06.48-1.42,0-2.6-.22-3.52-.67-.93-.44-1.67-.93-2.23-1.47-.66-.63-1.17-1.35-1.52-2.13l3.08-3.16c.33.58.71,1.1,1.14,1.56.38.38.83.74,1.35,1.07.52.33,1.1.49,1.73.49Z"/>
    <path class="cls-3" d="M215.29,169.1c0-1.57.25-3.02.74-4.34.49-1.32,1.19-2.46,2.07-3.43.89-.96,1.94-1.72,3.16-2.27,1.22-.55,2.55-.82,4-.82,1.37,0,2.59.27,3.65.8,1.07.53,1.97,1.25,2.7,2.15.74.9,1.29,1.94,1.67,3.1.38,1.17.57,2.4.57,3.69,0,.28-.01.57-.04.88,0,.25-.01.55-.04.88-.03.33-.06.67-.11,1.03h-12.75c.1.53.25,1.05.46,1.54.2.5.48.93.82,1.31.34.38.77.69,1.27.93.51.24,1.1.36,1.79.36.76,0,1.44-.13,2.04-.38.6-.25,1.11-.54,1.54-.86.43-.32.77-.62,1.03-.89.25-.28.41-.43.46-.46l2.89,3.96c-.33.38-.72.79-1.18,1.22-.46.43-1,.82-1.64,1.18-.63.36-1.37.65-2.21.89-.84.24-1.81.36-2.93.36-1.45,0-2.78-.27-4-.82-1.22-.55-2.27-1.3-3.16-2.27-.89-.96-1.58-2.11-2.07-3.43-.5-1.32-.74-2.77-.74-4.34ZM228.46,167.35c.02-.23.02-.48,0-.76-.03-.25-.07-.53-.13-.82-.06-.29-.18-.6-.36-.93-.08-.15-.19-.32-.34-.49-.15-.18-.34-.35-.57-.51-.23-.16-.49-.3-.78-.42-.29-.11-.63-.17-1.01-.17-.63,0-1.2.11-1.69.34-.49.23-.92.53-1.28.91-.36.38-.64.82-.86,1.31-.22.49-.37,1.01-.48,1.54h7.5Z"/>
    <path class="cls-3" d="M237.67,179.57v-20.98h5.52v3.62c.56-1.09,1.29-2.02,2.19-2.8.9-.77,2.05-1.16,3.45-1.16,1.52,0,2.8.27,3.85.82,1.04.55,1.88,1.28,2.51,2.19.63.91,1.09,1.99,1.37,3.22.28,1.23.42,2.53.42,3.9v.36c0,.22,0,.7.02,1.47s.02,1.88.02,3.35v6.02h-5.6v-10.28c0-.63-.04-1.3-.13-2-.09-.7-.27-1.34-.53-1.94-.27-.6-.65-1.09-1.16-1.48-.51-.39-1.18-.59-2.02-.59-1.32,0-2.4.55-3.25,1.64-.85,1.09-1.28,2.67-1.28,4.72v1.26c0,.63,0,1.62.02,2.95.01,1.33.02,3.24.02,5.73h-5.41Z"/>
    <path class="cls-4" d="M272.81,158.67h5.41v3.81c.53-1.14,1.26-2.12,2.19-2.93.93-.81,2.1-1.22,3.52-1.22,1.5,0,2.79.31,3.88.93,1.09.62,1.99,1.44,2.7,2.46.71,1.02,1.24,2.17,1.6,3.46s.53,2.63.53,4-.18,2.67-.53,3.96c-.36,1.29-.89,2.44-1.62,3.45-.72,1-1.64,1.81-2.74,2.44-1.1.62-2.42.93-3.94.93-.94,0-1.76-.17-2.47-.51-.71-.34-1.32-.8-1.83-1.37-.51-.57-.94-1.2-1.29-1.88v10.89h-5.41v-28.4ZM278.25,169.14c0,.61.08,1.26.23,1.94.15.69.41,1.31.76,1.88.36.57.82,1.05,1.39,1.43.57.38,1.26.57,2.07.57s1.5-.19,2.08-.57c.57-.38,1.03-.86,1.39-1.43.36-.57.61-1.2.76-1.88.15-.69.23-1.33.23-1.94s-.08-1.26-.23-1.94c-.15-.69-.41-1.31-.76-1.88-.36-.57-.82-1.05-1.39-1.43-.57-.38-1.26-.57-2.08-.57s-1.5.19-2.07.57c-.57.38-1.03.86-1.39,1.43-.36.57-.61,1.2-.76,1.88-.15.69-.23,1.33-.23,1.94Z"/>
    <path class="cls-4" d="M295.69,168.91c0-1.37.18-2.71.53-4.02.35-1.31.9-2.47,1.64-3.5.74-1.03,1.66-1.85,2.78-2.47,1.12-.62,2.42-.93,3.92-.93s2.68.36,3.62,1.08c.94.72,1.62,1.72,2.06,2.99v-3.43h5.52v20.98h-5.52v-3.62c-.28.53-.6,1.05-.97,1.56-.37.51-.78.95-1.24,1.33-.46.38-.98.69-1.56.91s-1.22.34-1.9.34c-1.5,0-2.8-.33-3.92-.99-1.12-.66-2.04-1.52-2.78-2.59-.74-1.07-1.28-2.27-1.64-3.6-.36-1.33-.53-2.68-.53-4.05ZM305.82,175.08c.84,0,1.54-.2,2.11-.61.57-.41,1.04-.91,1.41-1.52.37-.61.63-1.28.78-2,.15-.72.23-1.4.23-2.04s-.08-1.26-.23-1.96c-.15-.7-.41-1.33-.78-1.9-.37-.57-.84-1.05-1.41-1.43-.57-.38-1.28-.57-2.11-.57s-1.54.19-2.11.57c-.57.38-1.03.86-1.39,1.43-.36.57-.61,1.21-.76,1.9-.15.7-.23,1.35-.23,1.96s.06,1.31.19,2.04c.13.72.36,1.39.7,2,.34.61.81,1.12,1.39,1.52.58.41,1.32.61,2.21.61Z"/>
    <path class="cls-4" d="M320.32,158.56h4.95v5.41h.19c.38-1.95,1.03-3.41,1.94-4.36.91-.95,2.13-1.43,3.66-1.43.41,0,.84.03,1.31.08.47.05.96.14,1.47.27l-1.75,5.37c-.15-.2-.36-.38-.63-.53s-.58-.23-.93-.23c-.58,0-1.16.15-1.73.44-.57.29-1.08.72-1.52,1.29-.44.57-.81,1.28-1.08,2.11-.28.84-.42,1.8-.42,2.89v9.71h-5.44v-21.01Z"/>
    <path class="cls-4" d="M334.98,169.06c0-1.57.25-3.02.74-4.34s1.18-2.46,2.06-3.41c.88-.95,1.92-1.7,3.14-2.25,1.22-.55,2.54-.82,3.96-.82.84,0,1.61.11,2.3.32.7.22,1.33.49,1.88.84.56.34,1.05.73,1.47,1.16.42.43.78.86,1.08,1.29l-3.85,3.24c-.03-.05-.09-.17-.21-.36-.11-.19-.29-.4-.51-.63-.23-.23-.52-.43-.88-.61-.36-.18-.79-.27-1.29-.27-.81,0-1.5.19-2.07.57-.57.38-1.03.86-1.39,1.43-.36.57-.61,1.2-.76,1.88-.15.69-.23,1.33-.23,1.94s.08,1.26.23,1.94c.15.69.41,1.31.76,1.88.36.57.82,1.05,1.39,1.43.57.38,1.26.57,2.07.57.51,0,.94-.09,1.29-.27.36-.18.65-.38.88-.61.23-.23.4-.44.51-.65.11-.2.18-.33.21-.38l4.07,2.93c-.28.46-.63.92-1.05,1.39-.42.47-.92.89-1.5,1.28-.58.38-1.24.69-1.98.93s-1.55.36-2.44.36c-1.42,0-2.74-.27-3.96-.82-1.22-.55-2.26-1.29-3.14-2.25-.88-.95-1.56-2.09-2.06-3.43s-.74-2.77-.74-4.32Z"/>
    <path class="cls-4" d="M355.08,168.99c0-1.57.25-3.03.74-4.38s1.19-2.5,2.09-3.46c.9-.96,1.96-1.72,3.18-2.27,1.22-.55,2.55-.82,4-.82s2.79.27,4.02.82c1.23.55,2.3,1.3,3.2,2.27.9.96,1.6,2.12,2.09,3.46s.74,2.8.74,4.38-.25,3.03-.74,4.36-1.19,2.49-2.09,3.46c-.9.98-1.97,1.74-3.2,2.28-1.23.55-2.57.82-4.02.82s-2.78-.27-4-.82c-1.22-.55-2.28-1.31-3.18-2.28-.9-.98-1.6-2.13-2.09-3.46s-.74-2.79-.74-4.36ZM365.09,174.85c.84,0,1.54-.19,2.11-.57.57-.38,1.04-.86,1.41-1.43.37-.57.63-1.2.78-1.88.15-.69.23-1.34.23-1.98s-.08-1.26-.23-1.96c-.15-.7-.41-1.33-.78-1.9-.37-.57-.84-1.05-1.41-1.43-.57-.38-1.28-.57-2.11-.57s-1.54.19-2.11.57c-.57.38-1.03.86-1.39,1.43-.36.57-.62,1.2-.78,1.88-.17.69-.25,1.35-.25,1.98s.08,1.29.25,1.98c.16.69.42,1.31.78,1.88.36.57.82,1.05,1.39,1.43.57.38,1.28.57,2.11.57Z"/>
    <path class="cls-4" d="M378.76,158.6h5.63v5.88c0,1.38,0,2.4-.02,3.05-.01.65-.02,1.03-.02,1.14v.21c0,.63.04,1.29.13,1.98.09.69.27,1.31.53,1.88.27.57.65,1.05,1.16,1.43.51.38,1.18.57,2.02.57,1.32,0,2.41-.52,3.26-1.56.85-1.04,1.28-2.59,1.28-4.64v-9.94h5.37v20.98h-5.48v-3.62c-.56,1.07-1.29,1.97-2.21,2.72-.91.75-2.07,1.12-3.46,1.12-1.5,0-2.77-.29-3.81-.86-1.04-.57-1.88-1.34-2.53-2.3-.65-.96-1.11-2.07-1.39-3.33s-.42-2.57-.42-3.94v-.3c0-.18,0-.62-.02-1.31-.01-.7-.02-1.76-.02-3.2v-5.96Z"/>
    <path class="cls-4" d="M402.66,158.56h4.95v5.41h.19c.38-1.95,1.03-3.41,1.94-4.36.91-.95,2.13-1.43,3.66-1.43.41,0,.84.03,1.31.08.47.05.96.14,1.47.27l-1.75,5.37c-.15-.2-.36-.38-.63-.53s-.58-.23-.93-.23c-.58,0-1.16.15-1.73.44-.57.29-1.08.72-1.52,1.29-.44.57-.81,1.28-1.08,2.11-.28.84-.42,1.8-.42,2.89v9.71h-5.44v-21.01Z"/>
    <path class="cls-4" d="M424.82,175.61c.79,0,1.4-.16,1.83-.49.43-.33.65-.71.65-1.14,0-.36-.09-.65-.27-.9-.18-.24-.41-.46-.71-.65s-.63-.37-1.01-.55-.76-.37-1.14-.57c-1.4-.71-2.52-1.35-3.37-1.92-.85-.57-1.5-1.12-1.96-1.66s-.76-1.09-.91-1.68c-.15-.58-.23-1.24-.23-1.98,0-.81.19-1.57.57-2.28.38-.71.9-1.33,1.56-1.85.66-.52,1.43-.93,2.32-1.24.89-.3,1.84-.46,2.85-.46,1.29,0,2.37.22,3.22.65.85.43,1.54.9,2.07,1.41.61.61,1.09,1.31,1.45,2.09l-3.43,2.44c-.05,0-.15-.12-.3-.36s-.36-.51-.63-.8c-.27-.29-.6-.55-.99-.78s-.86-.34-1.39-.34c-.81,0-1.4.18-1.77.53-.37.36-.55.71-.55,1.07,0,.38.18.74.53,1.08s.78.66,1.28.95c.5.29,1.01.56,1.56.8s1,.45,1.35.63c.63.3,1.25.64,1.85,1.01.6.37,1.13.78,1.6,1.24.47.46.84.97,1.12,1.54.28.57.42,1.22.42,1.96,0,.96-.19,1.85-.57,2.65-.38.8-.91,1.49-1.58,2.07-.67.58-1.47,1.03-2.4,1.35-.93.32-1.95.48-3.06.48-1.42,0-2.6-.22-3.52-.67-.93-.44-1.67-.93-2.23-1.47-.66-.63-1.17-1.35-1.52-2.13l3.08-3.16c.33.58.71,1.1,1.14,1.56.38.38.83.74,1.35,1.07.52.33,1.1.49,1.73.49Z"/>
    <path class="cls-5" d="M447.06,169.06c0-1.57.25-3.02.74-4.34s1.18-2.46,2.06-3.41c.88-.95,1.92-1.7,3.14-2.25,1.22-.55,2.54-.82,3.96-.82.84,0,1.61.11,2.3.32.7.22,1.33.49,1.88.84.56.34,1.05.73,1.47,1.16.42.43.78.86,1.08,1.29l-3.85,3.24c-.03-.05-.09-.17-.21-.36-.11-.19-.29-.4-.51-.63-.23-.23-.52-.43-.88-.61-.36-.18-.79-.27-1.29-.27-.81,0-1.5.19-2.07.57-.57.38-1.03.86-1.39,1.43-.36.57-.61,1.2-.76,1.88-.15.69-.23,1.33-.23,1.94s.08,1.26.23,1.94c.15.69.41,1.31.76,1.88.36.57.82,1.05,1.39,1.43.57.38,1.26.57,2.07.57.51,0,.94-.09,1.29-.27.36-.18.65-.38.88-.61.23-.23.4-.44.51-.65.11-.2.18-.33.21-.38l4.07,2.93c-.28.46-.63.92-1.05,1.39-.42.47-.92.89-1.5,1.28-.58.38-1.24.69-1.98.93s-1.55.36-2.44.36c-1.42,0-2.74-.27-3.96-.82-1.22-.55-2.26-1.29-3.14-2.25-.88-.95-1.56-2.09-2.06-3.43s-.74-2.77-.74-4.32Z"/>
    <path class="cls-5" d="M473.36,179.57h-5.44v-31.1h5.44v31.1Z"/>
    <path class="cls-5" d="M481.05,148.77c.86,0,1.59.3,2.19.91.6.61.89,1.35.89,2.21v.27c0,.86-.3,1.59-.89,2.19s-1.33.9-2.19.9-1.6-.3-2.21-.9c-.61-.6-.91-1.33-.91-2.19v-.27c0-.86.3-1.6.91-2.21.61-.61,1.34-.91,2.21-.91ZM483.79,158.56l.04,21.01h-5.52l-.04-20.98,5.52-.04Z"/>
    <path class="cls-5" d="M487.94,169.1c0-1.57.25-3.02.74-4.34s1.19-2.46,2.07-3.43c.89-.96,1.94-1.72,3.16-2.27,1.22-.55,2.55-.82,4-.82,1.37,0,2.59.27,3.66.8,1.07.53,1.97,1.25,2.7,2.15.74.9,1.29,1.94,1.67,3.1.38,1.17.57,2.4.57,3.69,0,.28-.01.57-.04.88,0,.25-.01.55-.04.88-.03.33-.06.67-.11,1.03h-12.75c.1.53.25,1.05.46,1.54.2.5.48.93.82,1.31s.77.69,1.28.93c.51.24,1.1.36,1.79.36.76,0,1.44-.13,2.04-.38.6-.25,1.11-.54,1.54-.86.43-.32.77-.62,1.03-.89.25-.28.41-.43.46-.46l2.89,3.96c-.33.38-.72.79-1.18,1.22-.46.43-1,.82-1.64,1.18s-1.37.65-2.21.89c-.84.24-1.81.36-2.93.36-1.45,0-2.78-.27-4-.82-1.22-.55-2.27-1.3-3.16-2.27-.89-.96-1.58-2.11-2.07-3.43-.5-1.32-.74-2.77-.74-4.34ZM501.11,167.35c.03-.23.03-.48,0-.76-.03-.25-.07-.53-.13-.82-.06-.29-.18-.6-.36-.93-.08-.15-.19-.32-.34-.49-.15-.18-.34-.35-.57-.51-.23-.16-.49-.3-.78-.42-.29-.11-.63-.17-1.01-.17-.63,0-1.2.11-1.69.34-.5.23-.92.53-1.28.91-.36.38-.64.82-.86,1.31-.22.49-.38,1.01-.48,1.54h7.5Z"/>
    <path class="cls-5" d="M510.33,179.57v-20.98h5.52v3.62c.56-1.09,1.29-2.02,2.19-2.8.9-.77,2.05-1.16,3.45-1.16,1.52,0,2.8.27,3.84.82,1.04.55,1.88,1.28,2.51,2.19.63.91,1.09,1.99,1.37,3.22.28,1.23.42,2.53.42,3.9v.36c0,.22,0,.7.02,1.47.01.76.02,1.88.02,3.35v6.02h-5.6v-10.28c0-.63-.04-1.3-.13-2-.09-.7-.27-1.34-.53-1.94-.27-.6-.65-1.09-1.16-1.48-.51-.39-1.18-.59-2.02-.59-1.32,0-2.41.55-3.25,1.64-.85,1.09-1.28,2.67-1.28,4.72v1.26c0,.63,0,1.62.02,2.95.01,1.33.02,3.24.02,5.73h-5.41Z"/>
    <path class="cls-5" d="M533.47,158.63h1.83c.3,0,.57-.1.8-.29.23-.19.37-.42.42-.7l.99-4h4.26v4.99h5.03v4.57h-5.03v7.04c0,1.45.31,2.54.93,3.29.62.75,1.62,1.12,2.99,1.12h.11c.43,0,.86-.09,1.29-.27l.95,5.18c-.36.08-.8.15-1.33.23s-.94.11-1.22.11c-.63,0-1.31-.03-2.02-.1-.71-.06-1.41-.2-2.09-.4-.68-.2-1.34-.5-1.96-.89-.62-.39-1.17-.9-1.64-1.52-.47-.62-.84-1.39-1.12-2.3s-.42-2-.42-3.27v-8.22h-2.78v-4.57Z"/>
  </g>
  <polyline class="cls-1" points="95.34 19.09 .4 19.09 .4 167.32 41.67 167.32"/>
  <polyline class="cls-1" points="505.51 19.09 610.96 19.09 610.96 167.32 571.25 167.32"/>
  <circle class="cls-2" cx="95.73" cy="19.09" r="9.75"/>
  <circle class="cls-3" cx="196.22" cy="19.09" r="9.75"/>
  <circle class="cls-4" cx="406.14" cy="14.42" r="14.42"/>
  <circle class="cls-5" cx="496.45" cy="19.09" r="9.75"/>
  <circle class="cls-4" cx="568.85" cy="167.32" r="2.68"/>
  <circle class="cls-4" cx="42.5" cy="167.32" r="2.68"/>
</svg>